HIERARCHY
ROOT RootJoint
{
    OFFSET   0.000000   0.000000   0.000000
    CHANNELS 6 Xposition Yposition Zposition Xrotation Yrotation Zrotation
    JOINT lHip
    {
        OFFSET   0.100000  -0.051395   0.000000
        CHANNELS 3 Xrotation Yrotation Zrotation
        JOINT lKnee
        {
            OFFSET   0.000000  -0.410000   0.000000
            CHANNELS 3 Xrotation Yrotation Zrotation
            JOINT lAnkle
            {
                OFFSET   0.000000  -0.390000   0.000000
                CHANNELS 3 Xrotation Yrotation Zrotation
                JOINT lToeJoint
                {
                    OFFSET   0.000000  -0.050000   0.130000
                    CHANNELS 3 Xrotation Yrotation Zrotation
                    End Site
                    {
                        OFFSET   0.010000   0.002000   0.060000
                    }
                }
            }
        }
    }
    JOINT rHip
    {
        OFFSET  -0.100000  -0.051395   0.000000
        CHANNELS 3 Xrotation Yrotation Zrotation
        JOINT rKnee
        {
            OFFSET   0.000000  -0.410000   0.000000
            CHANNELS 3 Xrotation Yrotation Zrotation
            JOINT rAnkle
            {
                OFFSET   0.000000  -0.390000   0.000000
                CHANNELS 3 Xrotation Yrotation Zrotation
                JOINT rToeJoint
                {
                    OFFSET   0.000000  -0.050000   0.130000
                    CHANNELS 3 Xrotation Yrotation Zrotation
                    End Site
                    {
                        OFFSET  -0.010000   0.002000   0.060000
                    }
                }
            }
        }
    }
    JOINT pelvis_lowerback
    {
        OFFSET   0.000000   0.093605   0.000000
        CHANNELS 3 Xrotation Yrotation Zrotation
        JOINT lowerback_torso
        {
            OFFSET   0.000000   0.100000   0.000000
            CHANNELS 3 Xrotation Yrotation Zrotation
            JOINT torso_head
            {
                OFFSET   0.000000   0.282350   0.000000
                CHANNELS 3 Xrotation Yrotation Zrotation
                End Site
                {
                    OFFSET   0.000000   0.192650   0.000000
                }
            }
            JOINT lTorso_Clavicle
            {
                OFFSET   0.001000   0.157500   0.000000
                CHANNELS 3 Xrotation Yrotation Zrotation
                JOINT lShoulder
                {
                    OFFSET   0.117647   0.000000   0.000000
                    CHANNELS 3 Xrotation Yrotation Zrotation
                    JOINT lElbow
                    {
                        OFFSET   0.245000   0.000000   0.000000
                        CHANNELS 3 Xrotation Yrotation Zrotation
                        JOINT lWrist
                        {
                            OFFSET   0.240000   0.000000   0.000000
                            CHANNELS 3 Xrotation Yrotation Zrotation
                            End Site
                            {
                                OFFSET   0.116353  -0.002500   0.000000
                            }
                        }
                    }
                }
            }
            JOINT rTorso_Clavicle
            {
                OFFSET  -0.001000   0.157500   0.000000
                CHANNELS 3 Xrotation Yrotation Zrotation
                JOINT rShoulder
                {
                    OFFSET  -0.117647   0.000000   0.000000
                    CHANNELS 3 Xrotation Yrotation Zrotation
                    JOINT rElbow
                    {
                        OFFSET  -0.245000   0.000000   0.000000
                        CHANNELS 3 Xrotation Yrotation Zrotation
                        JOINT rWrist
                        {
                            OFFSET  -0.240000   0.000000   0.000000
                            CHANNELS 3 Xrotation Yrotation Zrotation
                            End Site
                            {
                                OFFSET  -0.116353  -0.002500   0.000000
                            }
                        }
                    }
                }
            }
        }
    }
}
MOTION
Frames: 5
Frame Time:   0.016667
  2.659293   0.916287  -2.696303  15.513141   8.187796   4.220079   8.933580   2.556739  -4.553371  18.327978  -3.897143   1.282593  23.082970  -4.586001 -11.104950   0.000006   0.000004  -0.000001 -43.277537  -3.651286  -0.300732  19.587577   1.324339  -2.849703  -4.573336   0.624956   0.332752  -0.000001   0.000001  -0.000001   2.408200  -2.241807  -0.526071   9.479388  -9.008229  -2.277451 -24.469948   1.698025   0.213462   0.064352  -3.704396  -7.743961  13.814598   0.749513 -61.297166 150.676788 -75.869658 130.001986  32.496459 -14.068739  31.727489   0.135284   2.541850  10.202119  52.052452  14.022749  57.474314   3.763935  57.653543  -5.714900  34.414135  -1.404365  -3.661874
  2.660801   0.915396  -2.651409  15.059935   8.315992   4.171249   9.510117   2.647668  -4.036109  22.697767  -4.496126   1.526581  22.786147  -5.045072 -10.494991   0.000003   0.000004  -0.000004 -42.124442  -1.866084  -0.547011  13.901521   0.907270  -2.066011  -4.953446   0.282569   1.181675  -0.000001   0.000002  -0.000002   2.476056  -2.379460  -0.440871   9.766759  -9.566151  -1.928930 -24.317287   2.165708   0.244564   0.093773  -4.229505  -7.590450  14.226622   0.535351 -61.398654 150.842472 -75.808334 130.194246  31.965889 -14.259738  31.816169   0.135399   2.213464  10.430315  51.115331  13.492257  57.410298   3.540257  57.067296  -5.703007  33.050732  -0.992466  -4.092983
  2.662320   0.909696  -2.607014  14.288154   8.093691   4.079445   9.491180   2.305774  -3.646290  28.889864  -4.257291   1.736452  21.382218  -5.037216 -10.860375   0.000002   0.000004  -0.000004 -41.153658   0.113794  -0.600234  12.043929   0.448812  -1.315907  -5.384071  -0.052032   1.804629  -0.000001  -0.000002  -0.000002   2.637814  -2.396399  -0.326696  10.450826  -9.648443  -1.436877 -24.348730   2.564042  -0.074845   0.105676  -4.646770  -7.668564  14.803062   0.363749 -61.799787 149.170985 -76.498636 128.604002  30.888750 -14.194762  31.300197   0.137493   1.778685  10.788649  49.876390  13.183708  56.572691   3.279606  56.438507  -5.775754  32.581329  -0.835273  -4.812658
  2.663842   0.902793  -2.562745  13.436809   7.785097   3.972640   9.326075   1.853962  -3.289479  35.531902  -3.794225   1.883236  19.702394  -4.896195 -11.465654   0.000003   0.000003  -0.000002 -40.228818   2.142893  -0.629319  11.147918  -0.018993  -0.574280  -5.825128  -0.387776   2.369120  -0.000001  -0.000006  -0.000002   2.822988  -2.382821  -0.205345  11.233065  -9.605700  -0.910002 -24.423752   2.945513  -0.481349   0.112151  -5.037102  -7.804664  15.419437   0.198289 -62.274474 146.783895 -77.358991 126.311669  29.677102 -14.053387  30.636344   0.142718   1.317330  11.179467  48.558909  12.951258  55.538774   3.011494  55.799309  -5.872454  32.336103  -0.740224  -5.605583
  2.665214   0.895005  -2.519289  12.603187   7.234633   3.477850   8.290775   1.599611  -2.736875  43.116391  -3.037784   1.998480  18.493575  -4.585030 -11.629516   0.000005  -0.000001  -0.000001 -39.893637   0.934190   0.101059  13.901121   0.211909  -0.928407  -3.447719  -0.236998   2.789973  -0.000001  -0.000001  -0.000001   3.018343  -2.255070  -0.004079  12.081452  -9.102159  -0.063248 -24.529616   3.178799  -0.979446   0.106982  -5.176243  -7.961160  16.119947  -0.247621 -63.048074 141.989077 -78.758513 121.764949  28.562383 -13.574785  29.590594   0.147719   1.043084  11.493379  46.827215  12.998283  54.301982   2.696012  55.012531  -6.026588  32.234435  -0.776182  -6.624655
